<?xml version="1.0" encoding="UTF-8"?>
<svg version="1.1" xmlns="http://www.w3.org/2000/svg" width="512" height="512">
<path d="M0 0 C168.96 0 337.92 0 512 0 C512 168.96 512 337.92 512 512 C343.04 512 174.08 512 0 512 C0 343.04 0 174.08 0 0 Z " fill="#000000" transform="translate(0,0)"/>
<path d="M0 0 C0.97661087 -0.00379669 1.95322174 -0.00759338 2.95942688 -0.01150513 C6.175512 -0.01889023 9.39068507 0.00245161 12.60668945 0.02490234 C14.85480137 0.02728907 17.10291531 0.02819161 19.35102844 0.02767944 C24.06096913 0.03080449 28.77060481 0.04734145 33.48046875 0.07421875 C39.49110771 0.10809979 45.50141033 0.11584972 51.5121336 0.11432838 C56.15610411 0.11487487 60.8000024 0.12588816 65.44394875 0.14033127 C67.65852119 0.14665793 69.87310175 0.15062839 72.08768272 0.15211868 C94.74280609 0.18404365 112.44287541 2.70290003 131.0324707 16.48583984 C132.6102832 17.63052734 132.6102832 17.63052734 134.2199707 18.79833984 C147.83052484 31.80398046 158.61586355 49.91739744 159.2355957 69.14599609 C159.37874 78.99286461 159.34081961 88.0943978 156.0324707 97.48583984 C155.6921582 98.53771484 155.3518457 99.58958984 155.0012207 100.67333984 C152.16135707 108.80916538 148.15502125 115.5810898 143.0324707 122.48583984 C142.53875977 123.15357422 142.04504883 123.82130859 141.53637695 124.50927734 C129.56736813 139.49596828 110.77945175 148.37560844 92.0324707 150.48583984 C85.59707258 150.82709513 79.1461023 150.71984841 72.7043457 150.68115234 C70.86061762 150.67741445 69.01688753 150.67457115 67.17315674 150.6725769 C62.35966343 150.66500152 57.54629403 150.64540657 52.73284912 150.62316895 C47.80539627 150.602578 42.87792308 150.59354707 37.95043945 150.58349609 C28.3110626 150.56215395 18.67177702 150.52809313 9.0324707 150.48583984 C9.03615788 151.03506859 9.03984505 151.58429733 9.04364395 152.15016937 C9.1321341 165.53861893 9.19799204 178.92701698 9.23971939 192.31569672 C9.26057818 198.79049084 9.28886535 205.2650736 9.33422852 211.73974609 C9.3777461 217.9902402 9.40162067 224.24053123 9.41197968 230.49116516 C9.41936034 232.87375586 9.43377303 235.25633567 9.45539093 237.63883972 C9.48450251 240.98066067 9.48842332 244.32164651 9.48657227 247.66357422 C9.50814392 249.13525055 9.50814392 249.13525055 9.53015137 250.63665771 C9.49355885 256.75725934 8.51921997 261.37193412 5.0324707 266.48583984 C1.65679624 269.43694495 -2.15017908 270.37112402 -6.5300293 270.98583984 C-10.68664614 270.38124103 -13.82466975 269.25454322 -16.9675293 266.48583984 C-21.12286071 260.74076932 -21.54135418 255.08339486 -21.47546387 248.1938324 C-21.48170383 247.18329853 -21.48794379 246.17276466 -21.49437284 245.13160855 C-21.51027623 241.7591297 -21.49770855 238.38737627 -21.48510742 235.01489258 C-21.49052966 232.59159932 -21.49765288 230.16830936 -21.50634766 227.74502563 C-21.52267961 221.85484372 -21.52030876 215.96484893 -21.50869709 210.07467227 C-21.49965008 205.28657647 -21.49844423 200.49853778 -21.50279236 195.71043587 C-21.50340529 195.02802662 -21.50401822 194.34561737 -21.50464973 193.64252906 C-21.50592867 192.25608243 -21.50722553 190.86963582 -21.50854009 189.48318923 C-21.51993544 176.49471694 -21.50684821 163.50635773 -21.48533863 150.51790399 C-21.46746454 139.37996209 -21.47057627 128.24218695 -21.48901367 117.10424805 C-21.51043199 104.15954964 -21.51884113 91.21495021 -21.50656462 78.27023655 C-21.50529046 76.8893004 -21.50403298 75.50836424 -21.50279236 74.12742805 C-21.50217526 73.44803771 -21.50155815 72.76864736 -21.50092235 72.06866942 C-21.49747262 67.28736241 -21.50328955 62.50611835 -21.51271057 57.72482109 C-21.52511671 51.28725887 -21.51625224 44.84993737 -21.49313354 38.41240311 C-21.48784397 36.04972036 -21.48936443 33.68701112 -21.4981842 31.32433891 C-21.50911275 28.0994891 -21.49540744 24.8756491 -21.47546387 21.65086365 C-21.48438675 20.71564627 -21.49330964 19.78042889 -21.50250292 18.81687158 C-21.43107486 12.86348304 -20.46046093 9.35328068 -16.9675293 4.48583984 C-11.41578851 0.21220253 -6.8578529 -0.08472108 0 0 Z " fill="#FEFEFE" transform="translate(111.967529296875,120.51416015625)"/>
<path d="M0 0 C1.28632324 -0.0099852 1.28632324 -0.0099852 2.59863281 -0.02017212 C4.400369 -0.03023597 6.20214199 -0.0349911 8.00390625 -0.03466797 C10.74281562 -0.039051 13.48012378 -0.07546306 16.21875 -0.11328125 C17.97916122 -0.11914902 19.73958 -0.12311868 21.5 -0.125 C22.71284668 -0.14655655 22.71284668 -0.14655655 23.95019531 -0.16854858 C29.59106123 -0.12372741 34.09512038 1.038419 38.75 4.3359375 C41.52242312 7.47410513 42.64574147 10.61916009 43.25 14.7734375 C42.63528418 19.15328771 41.7011051 22.96026303 38.75 26.3359375 C33.27275136 29.88962518 28.56153208 30.90240228 22.12109375 30.8046875 C21.32776138 30.81173706 20.53442902 30.81878662 19.71705627 30.8260498 C17.20686855 30.84791283 14.69775386 30.84512283 12.1875 30.8359375 C8.87312671 30.82383544 5.56032994 30.8377016 2.24609375 30.8671875 C1.49798935 30.85586792 0.74988495 30.84454834 -0.02088928 30.83288574 C-5.52562156 30.88534169 -8.796999 32.02675399 -13.25 35.3359375 C-17.16034484 40.55540867 -16.72328175 46.37966487 -16.76171875 52.640625 C-16.77966995 53.71974152 -16.79762115 54.79885803 -16.81611633 55.91067505 C-16.87012867 59.34405659 -16.9040867 62.77729981 -16.9375 66.2109375 C-16.970681 68.54429004 -17.00517138 70.87762435 -17.04101562 73.2109375 C-17.12584996 78.91914678 -17.19423829 84.62737416 -17.25 90.3359375 C-16.66641724 90.32705505 -16.08283447 90.31817261 -15.48156738 90.309021 C-9.38169191 90.22020225 -3.28200156 90.16006057 2.81835938 90.11621094 C5.09187284 90.09615433 7.3653351 90.06890212 9.63867188 90.03417969 C12.91549349 89.98540038 16.19163025 89.96290853 19.46875 89.9453125 C20.98172668 89.91434479 20.98172668 89.91434479 22.52526855 89.88275146 C28.69916803 89.88080925 33.68609813 90.58047792 38.75 94.3359375 C41.51462842 97.48393396 42.64501876 100.6141915 43.25 104.7734375 C42.63528418 109.15328771 41.7011051 112.96026303 38.75 116.3359375 C32.17374897 120.38798528 27.09579307 120.88267335 19.46875 120.7265625 C18.41465942 120.72090271 17.36056885 120.71524292 16.27453613 120.70941162 C12.93254746 120.68715484 9.59166053 120.63697727 6.25 120.5859375 C3.9739739 120.56585873 1.69793087 120.54761038 -0.578125 120.53125 C-6.13578782 120.4873253 -11.69281517 120.42052087 -17.25 120.3359375 C-17.24631283 121.03977821 -17.24262566 121.74361893 -17.23882675 122.46878815 C-17.1504027 139.61259791 -17.08425494 156.75634958 -17.04275131 173.90033722 C-17.02214581 182.19112855 -16.99406387 190.48176746 -16.94824219 198.77246094 C-16.9083126 206.0005356 -16.88255256 213.22849984 -16.87364602 220.45668173 C-16.86844158 224.28228015 -16.85625171 228.10756272 -16.82707977 231.93305969 C-16.79981357 235.53804904 -16.79157736 239.14259417 -16.79756927 242.74767685 C-16.79595403 244.69281446 -16.77449002 246.63790433 -16.75231934 248.58291626 C-16.78545707 255.6468978 -17.40409661 260.34633297 -21.25 266.3359375 C-24.62567447 269.2870426 -28.43264979 270.22122168 -32.8125 270.8359375 C-36.97706718 270.23018227 -40.09147691 269.09212312 -43.25 266.3359375 C-47.88925128 259.29238563 -47.79836323 253.02924662 -47.70410156 244.75976562 C-47.70297158 243.39899733 -47.70360988 242.0382266 -47.70587158 240.67745972 C-47.70701381 237.0042801 -47.68358524 233.33162869 -47.65557575 229.65857124 C-47.63047935 225.81224408 -47.62821364 221.96590325 -47.62347412 218.11950684 C-47.61106843 210.84521747 -47.57827971 203.57117011 -47.53807616 196.29698706 C-47.49328322 188.01162463 -47.47135256 179.72625032 -47.45129442 171.44079685 C-47.4095447 154.40570403 -47.33923985 137.3708464 -47.25 120.3359375 C-48.54035156 120.38234375 -49.83070313 120.42875 -51.16015625 120.4765625 C-52.87758088 120.51410184 -54.59503072 120.55049967 -56.3125 120.5859375 C-57.16005859 120.61945313 -58.00761719 120.65296875 -58.88085938 120.6875 C-64.90289238 120.78050437 -68.31176216 119.82482623 -73.25 116.3359375 C-76.08895714 112.88507481 -77.13537524 109.15263889 -77.75 104.7734375 C-77.14813605 100.63562283 -76.12482468 97.42691441 -73.25 94.3359375 C-67.47691184 90.28374199 -63.26433003 89.81103624 -56.3125 90.0859375 C-55.43787109 90.10398437 -54.56324219 90.12203125 -53.66210938 90.140625 C-51.52425892 90.18735397 -49.38697955 90.25908309 -47.25 90.3359375 C-47.25888245 89.71334549 -47.26776489 89.09075348 -47.2769165 88.44929504 C-47.36609817 81.91070837 -47.42602513 75.37229723 -47.46972656 68.83325195 C-47.48971822 66.39991221 -47.51692074 63.96661975 -47.55175781 61.53344727 C-47.81457903 42.69148467 -47.79387097 27.52351874 -34.1484375 13.1171875 C-24.34748569 3.83572077 -13.32164344 0.03666903 0 0 Z " fill="#FEFEFE" transform="translate(378.25,120.6640625)"/>
<path d="M0 0 C13.2825 -0.0825 26.565 -0.165 40.25 -0.25 C44.42172852 -0.28641602 48.59345703 -0.32283203 52.89160156 -0.36035156 C58.04248047 -0.37841797 58.04248047 -0.37841797 60.46478271 -0.3817749 C62.13263232 -0.38785965 63.80046592 -0.40180654 65.46820068 -0.42230225 C81.53756577 -0.60966822 95.50708649 1.86435833 107.75 13.25 C116.69873928 22.87411583 120.64626595 34.11202138 120.2109375 47.171875 C119.33960689 58.85415954 114.24485789 71.27909257 105.4296875 79.25390625 C91.62721202 89.1730486 78.01578114 90.29769977 61.62109375 90.1953125 C60.04170879 90.19236693 58.46232188 90.19032966 56.88293457 90.18920898 C51.06775968 90.17878121 45.25262675 90.15085874 39.4375 90.125 C19.9159375 90.063125 19.9159375 90.063125 0 90 C0 60.3 0 30.6 0 0 Z " fill="#000000" transform="translate(121,151)"/>
<path d="M0 0 C0.33 0 0.66 0 1 0 C1 13.2 1 26.4 1 40 C-12.2 40 -25.4 40 -39 40 C-39 39.67 -39 39.34 -39 39 C-38.26136719 38.85304688 -37.52273438 38.70609375 -36.76171875 38.5546875 C-26.16639717 36.21213864 -15.51333419 32.13364105 -9 23 C-7.4382625 20.38381792 -6.01210873 17.7123344 -4.625 15 C-4.27864502 14.32340332 -3.93229004 13.64680664 -3.57543945 12.94970703 C-1.46630842 8.59185846 -0.43963806 4.82345761 0 0 Z " fill="#F8F8F8" transform="translate(511,472)"/>
<path d="M0 0 C0.33 0 0.66 0 1 0 C1.185625 1.19625 1.37125 2.3925 1.5625 3.625 C4.25703696 15.40663056 10.08566656 25.03477322 20 32 C25.7463847 35.52954945 31.41034594 37.65766306 38 39 C38 39.33 38 39.66 38 40 C25.46 40 12.92 40 0 40 C0 26.8 0 13.6 0 0 Z " fill="#FAFAFA" transform="translate(0,472)"/>
<path d="M0 0 C12.54 0 25.08 0 38 0 C38 12.54 38 25.08 38 38 C37.67 38 37.34 38 37 38 C36.79246094 37.17757812 36.58492188 36.35515625 36.37109375 35.5078125 C33.21803708 24.08292932 27.9422837 14.80170194 18 8 C12.25022302 4.88035189 6.34886237 2.55194414 0 1 C0 0.67 0 0.34 0 0 Z " fill="#FAFAFA" transform="translate(474,0)"/>
<path d="M0 0 C12.54 0 25.08 0 38 0 C35.36928958 1.75380695 33.69624664 2.49936726 30.75 3.375 C19.66351383 7.00493015 10.93503278 14.11430256 5.21875 24.32421875 C3.21241367 28.72915588 2.02281572 33.28069238 1 38 C0.67 38 0.34 38 0 38 C0 25.46 0 12.92 0 0 Z " fill="#FBFBFB" transform="translate(0,0)"/>
</svg>
